<svg xmlns="http://www.w3.org/2000/svg" viewBox="0 0 100 125"><path style="text-indent:0;text-align:start;line-height:normal;text-transform:none;block-progression:tb;marker:none;-inkscape-font-specification:Sans" d="M50 5C25.183 5 5 25.183 5 50s20.183 45 45 45 45-20.183 45-45S74.817 5 50 5zm0 6c21.575 0 39 17.425 39 39S71.575 89 50 89 11 71.575 11 50s17.425-39 39-39zm0 14c-8.249 0-15 6.751-15 15a3 3 0 1 0 6 0c0-5.006 3.994-9 9-9s9 3.994 9 9c0 2.816-1 4.783-2.906 6.938-1.907 2.154-4.766 4.318-7.907 6.687A3 3 0 0 0 47 56v4a3 3 0 1 0 6 0v-2.531c2.697-2.026 5.387-4.039 7.594-6.532C63.128 48.075 65 44.412 65 40c0-8.249-6.751-15-15-15zm0 42a4 4 0 1 0 0 8 4 4 0 0 0 0-8z" font-weight="400" color="#000" overflow="visible" font-family="Sans"/></svg>