<svg xmlns="http://www.w3.org/2000/svg" data-name="Layer 1" viewBox="0 0 100 125"><path d="M40.11 58.94a9.15 9.15 0 0 1 7.39-9V48a2.5 2.5 0 0 1 5 0v2a9.85 9.85 0 0 1 6.63 5.73 2.5 2.5 0 0 1-4.61 1.93 4.88 4.88 0 0 0-4.51-3c-2.36 0-4.89 1.34-4.89 4.28 0 .77 0 3.09 5.45 4.34h.08c8 1.87 9.25 6.56 9.25 9.19a9.15 9.15 0 0 1-7.39 9v2a2.5 2.5 0 0 1-5 0v-2a9.85 9.85 0 0 1-6.63-5.73 2.5 2.5 0 1 1 4.61-1.93 4.89 4.89 0 0 0 4.52 3c2.36 0 4.89-1.34 4.89-4.28 0-.77 0-3.09-5.45-4.34h-.08c-8.06-1.92-9.26-6.61-9.26-9.25Zm18-34.31a2.5 2.5 0 0 0 3.45-.63l8.61-12.26a2.51 2.51 0 0 0-.46-3.37C58.65-.81 41.33-.8 30.28 8.4a2.5 2.5 0 0 0-.45 3.36L38.44 24a2.5 2.5 0 0 0 4.09-2.87l-7.22-10.27a26.7 26.7 0 0 1 29.38 0l-7.22 10.29a2.5 2.5 0 0 0 .61 3.48ZM16.33 73.32A56.84 56.84 0 0 1 36.54 30a2.5 2.5 0 0 1 1.61-.59h23.69a2.5 2.5 0 0 1 1.61.59 56.84 56.84 0 0 1 20.22 43.32v7.11l.77.37a9.31 9.31 0 0 1-4 17.71H19.55a9.31 9.31 0 0 1-4-17.71l.77-.37Zm-1 16.83a4.28 4.28 0 0 0 4.2 3.36h60.9a4.31 4.31 0 0 0 1.86-8.19l-2.19-1A2.5 2.5 0 0 1 78.69 82v-8.68a51.85 51.85 0 0 0-17.77-38.91H39.08a51.84 51.84 0 0 0-17.75 38.92v8.68a2.5 2.5 0 0 1-1.42 2.25l-2.19 1a4.29 4.29 0 0 0-2.37 4.89Z"/></svg>