<svg xmlns="http://www.w3.org/2000/svg" viewBox="0 0 52 65" xml:space="preserve"><path d="M7 50c-2.757 0-5-2.243-5-5V22h10v23c0 2.757-2.243 5-5 5zM4 24v21c0 1.654 1.346 3 3 3s3-1.346 3-3V24H4z"/><path d="M45 50H7v-2h38c1.654 0 3-1.346 3-3V4H12v18.999h-2V2h40v43c0 2.757-2.243 5-5 5z"/><path d="M46 16H14V6h32v10zm-30-2h28V8H16v6zM6 23h2v22H6zM14 19h14v2H14zM32 19h14v2H32zM14 24h14v2H14zM32 24h14v2H32zM14 29h14v2H14zM32 29h14v2H32zM14 34h14v2H14zM32 34h14v2H32zM14 39h14v2H14zM32 39h14v2H32zM14 44h14v2H14zM32 44h14v2H32z"/></svg>