<svg xmlns="http://www.w3.org/2000/svg" viewBox="0 0 100 125"><g data-name="Layer 50"><path d="M97 50a47 47 0 1 0-47 47h45a2 2 0 0 0 0-4H68.941A47.058 47.058 0 0 0 97 50ZM50 93a43 43 0 1 1 43-43 43.049 43.049 0 0 1-43 43Z"/><path d="M50 19.971a9.9 9.9 0 1 0 9.9 9.9 9.911 9.911 0 0 0-9.9-9.9Zm0 15.8a5.9 5.9 0 1 1 5.9-5.9 5.906 5.906 0 0 1-5.9 5.9ZM50 60.229a9.9 9.9 0 1 0 9.9 9.9 9.911 9.911 0 0 0-9.9-9.9Zm0 15.8a5.9 5.9 0 1 1 5.9-5.9 5.907 5.907 0 0 1-5.9 5.9ZM29.871 40.1a9.9 9.9 0 1 0 9.9 9.9 9.911 9.911 0 0 0-9.9-9.9Zm0 15.8a5.9 5.9 0 1 1 5.9-5.9 5.907 5.907 0 0 1-5.9 5.9ZM70.129 40.1a9.9 9.9 0 1 0 9.9 9.9 9.911 9.911 0 0 0-9.9-9.9Zm0 15.8a5.9 5.9 0 1 1 5.9-5.9 5.906 5.906 0 0 1-5.9 5.9Z"/></g></svg>